<svg xmlns="http://www.w3.org/2000/svg" width="173" height="462" viewBox="0 0 173 462">
  <g fill="none" fill-rule="evenodd">
    <polygon fill="#254983" points="86.524 245.696 66.602 245.696 66.602 462 86.524 462"/>
    <path fill="#0980B7" d="M86.329088,271.746094 C75.48912,271.746094 66.602295,262.867558 66.602295,252.037712 L66.602295,233.353798 C66.602295,222.523949 75.48912,213.645432 86.329088,213.645432 C97.169056,213.645432 106.056074,222.523949 106.056074,233.353798 L106.056074,252.037712 C106.104702,262.867558 97.217884,271.746094 86.329088,271.746094 Z"/>
    <polygon fill="#254983" points="106.007 232.183 66.7 232.183 66.7 246.672 106.007 246.672"/>
    <polygon fill="#0980B7" points="106.105 247.306 86.476 247.306 86.476 462 106.105 462"/>
    <path fill="#F6C09C" d="M22.217049,355.018677 C34.473049,355.018677 44.434097,345.066925 44.434097,332.822373 L44.434097,223.255585 L0,223.255585 L0,332.822373 C0,345.115715 9.96105,355.018677 22.217049,355.018677 Z"/>
    <path fill="#DD2B26" d="M44.434097,171.69191 L44.434097,223.255615 L0,223.255615 L0,216.084499 C0,191.546617 19.9221,171.69191 44.434097,171.69191 Z"/>
    <polygon fill="#EE927E" points=".016 230.391 44.45 230.391 44.45 223.22 .016 223.22"/>
    <path fill="#F6C09C" d="M150.782967,355.018677 C138.526968,355.018677 128.565918,345.066925 128.565918,332.822373 L128.565918,223.255585 L173.000015,223.255585 L173.000015,332.822373 C173.000015,345.115715 163.087795,355.018677 150.782967,355.018677 Z"/>
    <path fill="#DD2B26" d="M128.565918,171.69191 L128.565918,223.255615 L173.000015,223.255615 L173.000015,216.084499 C173.000015,191.546617 153.126743,171.69191 128.565918,171.69191 Z"/>
    <polygon fill="#EE927E" points="173 223.256 128.566 223.256 128.566 230.427 173 230.427"/>
    <path fill="#FED767" d="M120.753296,239.646729 L52.24667,239.646729 C32.861688,239.646729 17.041199,223.792229 17.041199,204.474129 C17.041199,185.107247 32.910518,169.301529 52.24667,169.301529 L120.753296,169.301529 C140.138283,169.301529 155.958883,185.156033 155.958883,204.474129 C156.007599,223.841012 140.138283,239.646729 120.753296,239.646729 Z"/>
    <path fill="#FEBF3F" d="M120.753304,231.6952 L52.24667,231.6952 C34.22889,231.6952 19.23849,217.987156 17.236514,200.47403 C17.090028,201.791172 16.992371,203.108323 16.992371,204.474247 C16.992371,223.841132 32.861694,239.646851 52.197846,239.646851 L120.704468,239.646851 C140.089455,239.646851 155.909943,223.792347 155.909943,204.474247 C155.909943,203.108323 155.812287,201.791172 155.665802,200.47403 C153.76149,217.987156 138.77108,231.6952 120.753304,231.6952 Z"/>
    <path fill="#DD2B26" d="M86.524407,222.572754 C83.838831,222.572754 81.641541,220.377516 81.641541,217.694445 L81.641541,191.107666 L91.407273,191.107666 L91.407273,217.694445 C91.407273,220.377516 89.209983,222.572754 86.524407,222.572754 Z"/>
    <path fill="#DD2B26" d="M86.524437,196.912842 L61.32884,171.74078 C58.594434,169.008929 60.547579,164.276978 64.405044,164.276978 L108.643825,164.276978 C112.550121,164.276978 114.454441,168.960146 111.720035,171.74078 L86.524437,196.912842 Z"/>
    <path fill="#0B3442" d="M75.440285 96.224609C77.274063 96.224609 78.760635 94.739425 78.760635 92.90736 78.760635 91.075295 77.274063 89.590118 75.440285 89.590118 73.606507 89.590118 72.119934 91.075295 72.119934 92.90736 72.119934 94.739425 73.606507 96.224609 75.440285 96.224609zM96.97377 91.151142C96.97377 93.004898 95.46008 94.468392 93.65342 94.468392 91.846759 94.468392 90.333069 92.956115 90.333069 91.151142 90.333069 89.297386 91.846759 87.833893 93.65342 87.833893 95.46008 87.833893 96.97377 89.297386 96.97377 91.151142z"/>
    <path fill="#EE927E" d="M69.94932 116.685451C71.684563 114.951827 71.6845574 112.141069 69.9493144 110.407445 68.214072 108.673821 65.4006944 108.673821 63.6654514 110.407445 61.9302091 112.141068 61.9302041 114.951827 63.6654464 116.68545 65.4006894 118.419074 68.2140777 118.419074 69.94932 116.685451zM110.326093 116.675451C112.061339 114.941828 112.061339 112.131069 110.326094 110.397447 108.590847 108.663825 105.77746 108.66383 104.042214 110.397452 102.306969 112.131073 102.306964 114.941828 104.04221 116.675451 105.777455 118.409072 108.590848 118.409072 110.326093 116.675451zM86.524391 192.912598L106.397659 173.057892 106.397659 158.666886C106.397659 147.739476 97.462015 138.812165 86.524391 138.812165 75.586769 138.812165 66.651123 147.739476 66.651123 158.666886L66.651123 173.057892 86.524391 192.912598z"/>
    <path fill="#E9686A" d="M86.524391,179.594849 C75.586769,179.594849 66.651123,170.667542 66.651123,159.740132 L66.651123,118.908707 C66.651123,107.981301 75.586769,99.054001 86.524391,99.054001 C97.462015,99.054001 106.397659,107.981301 106.397659,118.908707 L106.397659,159.740132 C106.397659,170.667542 97.462015,179.594849 86.524391,179.594849 Z"/>
    <path fill="#F6C09C" d="M86.524391,169.399162 C75.586769,169.399162 66.651123,160.471855 66.651123,149.544445 L66.651123,108.713017 C66.651123,97.785606 75.586769,88.858307 86.524391,88.858307 C97.462015,88.858307 106.397659,97.785606 106.397659,108.713017 L106.397659,149.544445 C106.397659,160.471855 97.462015,169.399162 86.524391,169.399162 Z"/>
    <path fill="#EE927E" d="M83.008735,94.029305 C84.229453,94.029305 85.401341,93.736604 86.426744,93.151207 C86.915031,93.395122 87.500973,93.541473 88.086917,93.541473 C90.040065,93.541473 91.651413,91.931628 91.651413,89.980302 C91.651413,89.833953 91.651413,89.63882 91.602588,89.49247 C89.991241,89.053422 88.282233,88.809509 86.5244,88.809509 C83.15522,88.809509 80.030184,89.638825 77.246948,91.151102 C78.565323,92.907295 80.664958,94.029305 83.008735,94.029305 Z"/>
    <path fill="#F6C09C" d="M86.524395,174.52137 C72.65705,174.52137 61.328796,163.203697 61.328796,149.349304 L61.328796,129.884865 C61.328796,116.030471 72.65705,104.712799 86.524395,104.712799 C100.391742,104.712799 111.719997,116.030471 111.719997,129.884865 L111.719997,149.349304 C111.719997,163.154911 100.391742,174.52137 86.524395,174.52137 Z"/>
    <path fill="#F5B296" d="M111.42707,126.177414 L111.42707,138.714653 C111.42707,152.569048 100.098823,163.886722 86.231483,163.886722 C73.633686,163.886722 63.08669,154.52037 61.280029,142.373382 L61.280029,149.300586 C61.280029,163.154979 72.608284,174.472656 86.475626,174.472656 C100.342968,174.472656 111.671215,163.154979 111.671215,149.300586 L111.671215,129.836143 C111.720043,128.616569 111.622387,127.348209 111.42707,126.177414 Z"/>
    <path fill="#FFF" d="M78.614136,115.298737 C78.711793,119.591646 82.227458,123.006462 86.524384,123.006462 C90.821309,123.006462 94.336974,119.591646 94.434632,115.298737 L78.614136,115.298737 Z"/>
    <path fill="#EE927E" d="M101.221874,107.200798 L96.094872,107.200798 C94.971814,107.200798 94.092896,106.273926 94.092896,105.200699 C94.092896,104.07869 95.020642,103.200592 96.094872,103.200592 L101.221874,103.200592 C102.344932,103.200592 103.223842,104.127473 103.223842,105.200699 C103.272671,106.322708 102.344932,107.200798 101.221874,107.200798 Z"/>
    <path fill="#0B3442" d="M101.221874,104.273804 L96.094872,104.273804 C94.971814,104.273804 94.092896,103.346929 94.092896,102.273701 C94.092896,101.151689 95.020642,100.27359 96.094872,100.27359 L101.221874,100.27359 C102.344932,100.27359 103.223842,101.200472 103.223842,102.273701 C103.272671,103.346929 102.344932,104.273804 101.221874,104.273804 Z"/>
    <path fill="#002334" d="M98.682754,106.810433 C98.047981,106.810433 97.559692,106.322608 97.559692,105.688427 L97.559692,103.444401 C97.559692,102.81022 98.047981,102.322388 98.682754,102.322388 C99.317527,102.322388 99.805809,102.81022 99.805809,103.444401 L99.805809,105.688427 C99.805809,106.322608 99.268699,106.810433 98.682754,106.810433 Z"/>
    <path fill="#EE927E" d="M77.295797,107.200798 L72.168787,107.200798 C71.045728,107.200798 70.166809,106.273926 70.166809,105.200699 C70.166809,104.07869 71.094557,103.200592 72.168787,103.200592 L77.295797,103.200592 C78.418857,103.200592 79.297768,104.127473 79.297768,105.200699 C79.297768,106.322708 78.418857,107.200798 77.295797,107.200798 Z"/>
    <path fill="#0B3442" d="M77.295797,104.273804 L72.168787,104.273804 C71.045728,104.273804 70.166809,103.346929 70.166809,102.273701 C70.166809,101.151689 71.094557,100.27359 72.168787,100.27359 L77.295797,100.27359 C78.418857,100.27359 79.297768,101.200472 79.297768,102.273701 C79.297768,103.346929 78.418857,104.273804 77.295797,104.273804 Z"/>
    <path fill="#002334" d="M74.707901,106.810433 C74.073128,106.810433 73.584839,106.322608 73.584839,105.688427 L73.584839,103.444401 C73.584839,102.81022 74.073128,102.322388 74.707901,102.322388 C75.342675,102.322388 75.830963,102.81022 75.830963,103.444401 L75.830963,105.688427 C75.830963,106.322608 75.342675,106.810433 74.707901,106.810433 Z"/>
    <path fill="#0B3442" d="M89.454147,92.273079 C91.422765,92.273079 93.018646,90.678692 93.018646,88.711918 C93.018646,86.745144 91.422765,85.150757 89.454147,85.150757 C87.485529,85.150757 85.889648,86.745144 85.889648,88.711918 C85.889648,90.678692 87.485529,92.273079 89.454147,92.273079 Z"/>
    <path fill="#0B3442" d="M80.762657,92.712158 C84.807758,92.712158 88.086959,89.43602 88.086959,85.394699 C88.086959,81.353378 84.807758,78.07724 80.762657,78.07724 C76.717556,78.07724 73.438354,81.353378 73.438354,85.394699 C73.438354,89.43602 76.717556,92.712158 80.762657,92.712158 Z"/>
    <path fill="#FFF" d="M88.28228 217.25529C88.28228 218.230955 87.501015 219.01149 86.524438 219.01149 85.54786 219.01149 84.766602 218.230955 84.766602 217.25529 84.766602 216.279624 85.54786 215.499104 86.524438 215.499104 87.501015 215.450321 88.28228 216.279624 88.28228 217.25529zM88.28228 199.937286C88.28228 200.912948 87.501015 201.693481 86.524438 201.693481 85.54786 201.693481 84.766602 200.912948 84.766602 199.937286 84.766602 198.961624 85.54786 198.181106 86.524438 198.181106 87.501015 198.181106 88.28228 198.961624 88.28228 199.937286zM88.28228 208.571938C88.28228 209.547596 87.501015 210.328125 86.524438 210.328125 85.54786 210.328125 84.766602 209.547596 84.766602 208.571938 84.766602 207.59628 85.54786 206.81575 86.524438 206.81575 87.501015 206.81575 88.28228 207.59628 88.28228 208.571938zM78.614136 115.298737C78.711793 119.591646 82.227458 123.006462 86.524384 123.006462 90.821309 123.006462 94.336974 119.591646 94.434632 115.298737L78.614136 115.298737z"/>
    <path fill="#F6C09C" d="M115.982954,69.4107208 C119.342262,68.6182332 121.422476,65.2550783 120.62925,61.8989058 C119.836024,58.5427342 116.469734,56.4644532 113.110426,57.2569408 C109.751118,58.0494286 107.670897,61.4125851 108.464123,64.7687567 C109.257349,68.1249292 112.623645,70.2032086 115.982954,69.4107208 Z"/>
    <polygon fill="#F6C09C" points="93.557 68.376 116.067 68.376 116.067 59.303 93.557 59.303"/>
    <path fill="#F6C09C" d="M118.263086,64.66185 L123.731895,64.66185 C125.00144,64.66185 126.026848,63.637405 126.026848,62.369043 C126.026848,61.100681 125.00144,60.076233 123.731895,60.076233 L118.263086,60.076233 C116.993541,60.076233 115.96814,61.100681 115.96814,62.369043 C115.96814,63.637405 116.993541,64.66185 118.263086,64.66185 Z"/>
    <path fill="#F6C09C" d="M117.725932,62.369077 L121.58339,58.515215 C122.462305,57.63712 122.462305,56.173629 121.58339,55.295534 C120.704475,54.41744 119.239614,54.41744 118.360699,55.295534 L114.503241,59.149393 C113.624326,60.027488 113.624326,61.490983 114.503241,62.369077 C115.382156,63.247173 116.847018,63.247173 117.725932,62.369077 Z"/>
    <path fill="#F6C09C" d="M115.62629 65.783898L119.483758 69.637758C120.362676 70.515853 121.827541 70.515853 122.706458 69.637758 123.585376 68.759663 123.585376 67.296175 122.706458 66.418079L118.848983 62.564211C117.970065 61.686117 116.505207 61.686117 115.62629 62.564211 114.747373 63.442307 114.747373 64.905802 115.62629 65.783898zM110.499268 55.539511L110.499268 61.003214C110.499268 62.271575 111.524668 63.296017 112.794213 63.296017 114.063757 63.296017 115.089158 62.271575 115.089158 61.003214L115.089158 55.539511C115.089158 54.271151 114.063757 53.246705 112.794213 53.246705 111.524668 53.246705 110.499268 54.319934 110.499268 55.539511z"/>
    <path fill="#F6C09C" d="M113.184875 64.808335L113.184875 70.272028C113.184875 71.540385 114.21027 72.564827 115.479808 72.564827 116.749347 72.564827 117.774742 71.540385 117.774742 70.272028L117.774742 64.808335C117.774742 63.539978 116.749347 62.515533 115.479808 62.515533 114.21027 62.515533 113.184875 63.539978 113.184875 64.808335zM62.4241271 67.7736084C64.8649105 65.335109 64.8649105 61.3815181 62.4241271 58.9430188 59.9833437 56.5045194 56.0260497 56.5045194 53.5852663 58.9430188 51.1444829 61.3815181 51.1444829 65.335109 53.5852663 67.7736084 56.0260497 70.2121077 59.9833437 70.2121077 62.4241271 67.7736084z"/>
    <polygon fill="#F6C09C" points="79.005 59.345 56.495 59.345 56.495 68.418 79.005 68.418"/>
    <path fill="#F6C09C" d="M54.297454,64.66185 L48.828639,64.66185 C47.559093,64.66185 46.533691,63.637405 46.533691,62.369043 C46.533691,61.100681 47.559093,60.076233 48.828639,60.076233 L54.297454,60.076233 C55.567001,60.076233 56.592407,61.100681 56.592407,62.369043 C56.592407,63.637405 55.567001,64.66185 54.297454,64.66185 Z"/>
    <path fill="#F6C09C" d="M54.834584,62.369077 L50.977119,58.515215 C50.098203,57.63712 50.098203,56.173629 50.977119,55.295534 C51.856035,54.41744 53.320894,54.41744 54.199809,55.295534 L58.057274,59.149393 C58.93619,60.027488 58.93619,61.490983 58.057274,62.369077 C57.178358,63.247173 55.713499,63.247173 54.834584,62.369077 Z"/>
    <path fill="#F6C09C" d="M56.934234 65.783898L53.076766 69.637758C52.197849 70.515853 50.732989 70.515853 49.854072 69.637758 48.975156 68.759663 48.975156 67.296175 49.854072 66.418079L53.711541 62.564211C54.590457 61.686117 56.055318 61.686117 56.934234 62.564211 57.813151 63.442307 57.813151 64.905802 56.934234 65.783898zM62.061218 55.539511L62.061218 61.003214C62.061218 62.271575 61.035815 63.296017 59.766267 63.296017 58.496719 63.296017 57.471313 62.271575 57.471313 61.003214L57.471313 55.539511C57.471313 54.271151 58.496719 53.246705 59.766267 53.246705 61.035815 53.246705 62.061218 54.319934 62.061218 55.539511z"/>
    <path fill="#F6C09C" d="M59.37566,64.808335 L59.37566,70.272028 C59.37566,71.540385 58.35026,72.564827 57.080716,72.564827 C55.811171,72.564827 54.785767,71.540385 54.785767,70.272028 L54.785767,64.808335 C54.785767,63.539978 55.811171,62.515533 57.080716,62.515533 C58.35026,62.515533 59.37566,63.539978 59.37566,64.808335 Z"/>
    <polygon fill="#F6C09C" points="114.552 81.638 88.526 81.638 88.526 91.737 114.552 91.737"/>
    <polygon fill="#EE927E" points="104.445 81.638 88.526 81.638 88.526 91.737 104.445 91.737"/>
    <path fill="#F6C09C" d="M112.843038,77.150421 C113.819611,77.150421 114.55204,77.930951 114.55204,78.85783 L114.55204,91.736564 L111.085205,91.736564 L111.085205,78.85783 C111.134034,77.930951 111.866466,77.150421 112.843038,77.150421 Z"/>
    <polygon fill="#F6C09C" points="57.989 91.753 84.015 91.753 84.015 81.655 57.989 81.655"/>
    <polygon fill="#EE927E" points="68.129 91.753 84.048 91.753 84.048 81.655 68.129 81.655"/>
    <path fill="#F6C09C" d="M59.717547 77.150421C58.740974 77.150421 58.008545 77.930951 58.008545 78.85783L58.008545 91.736564 61.475376 91.736564 61.475376 78.85783C61.475376 77.930951 60.694119 77.150421 59.717547 77.150421zM102.882034 75.003906L69.678528 75.003906 69.678528 71.442741C69.678528 62.271527 77.100488 54.856506 86.280281 54.856506 95.460074 54.856506 102.882034 62.271527 102.882034 71.442741L102.882034 75.003906z"/>
    <path fill="#EE927E" d="M86.231426,64.613148 C81.543871,64.613148 77.735229,60.808071 77.735229,56.124896 L77.735229,49.929447 C77.735229,45.246273 81.543871,41.441192 86.231426,41.441192 C90.91898,41.441192 94.727615,45.246273 94.727615,49.929447 L94.727615,56.124896 C94.727615,60.808071 90.91898,64.613148 86.231426,64.613148 Z"/>
    <path fill="#E9686A" d="M86.231426,61.100819 C81.543871,61.100819 77.735229,57.295744 77.735229,52.612569 L77.735229,46.417117 C77.735229,41.733944 81.543871,37.928863 86.231426,37.928863 C90.91898,37.928863 94.727615,41.733944 94.727615,46.417117 L94.727615,52.612569 C94.727615,57.295744 90.91898,61.100819 86.231426,61.100819 Z"/>
    <path fill="#EE927E" d="M107.813717 45.051025C110.537416 45.051025 112.745407 42.845088 112.745407 40.12393 112.745407 37.402772 110.537416 35.196838 107.813717 35.196838 105.090017 35.196838 102.882019 37.402772 102.882019 40.12393 102.882019 42.845088 105.090017 45.051025 107.813717 45.051025zM64.746823 45.051025C67.470522 45.051025 69.678513 42.845088 69.678513 40.12393 69.678513 37.402772 67.470522 35.196838 64.746823 35.196838 62.023123 35.196838 59.815125 37.402772 59.815125 40.12393 59.815125 42.845088 62.023123 45.051025 64.746823 45.051025z"/>
    <path fill="#F6C09C" d="M95.2712794,56.2413549 C107.255447,51.2818779 112.946337,37.5554161 107.98223,25.582445 C103.018122,13.6094703 89.2788243,7.92391043 77.2946571,12.8833874 C65.3104889,17.8428647 59.6196087,31.5693268 64.583717,43.5423015 C69.5478237,55.5152726 83.2871113,61.2008322 95.2712794,56.2413549 Z"/>
    <path fill="#EE927E" d="M80.030189,21.440188 C85.645489,21.440188 90.235386,17.000927 90.528359,11.48844 C89.161154,11.244524 87.745127,11.098176 86.329095,11.098176 C80.56731,11.098176 75.29381,13.147065 71.1922,16.610663 C73.04769,19.488864 76.27038,21.440188 80.030189,21.440188 Z"/>
    <path fill="#F5B296" d="M86.377952,50.612452 C74.561409,50.612452 64.746847,41.880282 63.1355,30.513825 C62.891357,31.830967 62.793701,33.148112 62.793701,34.562821 C62.793701,47.53912 73.291864,58.027481 86.280296,58.027481 C99.268726,58.027481 109.766899,47.53912 109.766899,34.562821 C109.766899,33.392027 109.669239,32.270016 109.522754,31.148005 C107.618435,42.221764 97.99918,50.612452 86.377952,50.612452 Z"/>
    <path fill="#FFF" d="M86.280219,51.832042 C89.795881,51.832042 92.676773,49.002628 92.676773,45.441467 L79.932497,45.441467 C79.883668,48.953845 82.764558,51.832042 86.280219,51.832042 Z"/>
    <path fill="#002334" d="M74.414875 42.46558C73.487131 42.46558 72.705872 41.685051 72.705872 40.758173L72.705872 38.660501C72.705872 37.733623 73.487131 36.953094 74.414875 36.953094 75.34262 36.953094 76.123879 37.733623 76.123879 38.660501L76.123879 40.758173C76.123879 41.685051 75.34262 42.46558 74.414875 42.46558zM98.145649 42.46558C97.217905 42.46558 96.436646 41.685051 96.436646 40.758173L96.436646 38.660501C96.436646 37.733623 97.217905 36.953094 98.145649 36.953094 99.073394 36.953094 99.854653 37.733623 99.854653 38.660501L99.854653 40.758173C99.805824 41.685051 99.073394 42.46558 98.145649 42.46558z"/>
    <path fill="#DD2B26" d="M91.4833448,11.6008285 C92.2955365,6.60104674 88.8970314,1.89012664 83.8925694,1.07869448 C78.8881073,0.267262311 74.1727799,3.6625915 73.3605882,8.66237328 C72.5483965,13.6621541 75.9469005,18.373075 80.9513626,19.1845071 C85.9558246,19.9959393 90.6711531,16.6006093 91.4833448,11.6008285 Z"/>
    <path fill="#DD2B26" d="M94.04894,17.154776 C95.9424901,16.3711573 96.8416753,14.2023171 96.0573234,12.3105372 C95.2729712,10.4187563 93.1021,9.52041423 91.2085499,10.304033 C89.3149997,11.0876517 88.4158214,13.2564901 89.2001736,15.148271 C89.9845255,17.0400509 92.1553899,17.9383948 94.04894,17.154776 Z"/>
    <polygon fill="#F5B296" points="102.882 71.833 69.679 71.833 69.679 75.004 102.882 75.004"/>
    <path fill="#EE927E" d="M97.706199 68.906017C97.706199 69.491412 97.217908 69.97924 96.631965 69.97924 96.046023 69.97924 95.557739 69.491412 95.557739 68.906017 95.557739 68.320622 96.046023 67.832794 96.631965 67.832794 97.217908 67.881577 97.706199 68.320622 97.706199 68.906017zM77.00283 68.906017C77.00283 69.491412 76.514545 69.97924 75.9286 69.97924 75.342656 69.97924 74.85437 69.491412 74.85437 68.906017 74.85437 68.320622 75.342656 67.832794 75.9286 67.832794 76.514545 67.881577 77.00283 68.320622 77.00283 68.906017z"/>
    <path fill="#F1F2F2" d="M93.165424,91.736938 L79.444564,91.736938 C74.07341,91.736938 69.727661,87.395244 69.727661,82.029102 L69.727661,75.053115 L102.93116,75.053115 L102.93116,82.029102 C102.882332,87.395244 98.536579,91.736938 93.165424,91.736938 Z"/>
    <path fill="#CCDDE7" d="M102.784374,75.003994 L102.784374,76.418708 C102.784374,81.784847 98.438626,86.126539 93.067471,86.126539 L79.346608,86.126539 C74.366083,86.126539 70.264472,82.370239 69.678528,77.540713 L69.678528,81.93119 C69.678528,87.297331 74.024285,91.63903 79.395439,91.63903 L93.116295,91.63903 C98.487448,91.63903 102.833206,87.297331 102.833206,81.93119 L102.833206,74.955215 L102.784374,74.955215 L102.784374,75.003994 Z"/>
    <path fill="#CCDDE7" d="M102.344902,85.199619 L92.139704,75.003952 L81.885681,75.003952 L97.55969,90.663322 C99.756981,89.541311 101.514814,87.58999 102.344902,85.199619 Z"/>
  </g>
</svg>
