<svg xmlns="http://www.w3.org/2000/svg" width="70" height="112" viewBox="0 0 70 112">
  <path fill="#F17949" fill-rule="evenodd" d="M501,1112 C481.671469,1112 466,1127.66797 466,1147 C466,1152.41406 467.230468,1157.5479 469.428249,1162.12109 C469.551187,1162.38097 501,1224 501,1224 L532.192436,1162.88672 C534.62603,1158.12212 536,1152.72163 536,1147 C536,1127.66797 520.332031,1112 501,1112 Z M501,1168 C489.40275,1168 480,1158.59375 480,1147 C480,1135.40625 489.40275,1126 501,1126 C512.59375,1126 522,1135.40625 522,1147 C522,1158.59375 512.59375,1168 501,1168 Z" transform="translate(-466 -1112)"/>
</svg>
